<?xml version="1.0" encoding="UTF-8"?>
<svg id="Logo" xmlns="http://www.w3.org/2000/svg" version="1.1" viewBox="0 0 450 450">
  <defs>
    <style>
      .st0 { fill: #2993b5; }
      .st1 { fill: #0a8754; }
      .st2 { fill: #fff; }
      .st3 { fill: #d10a49; }
      .st4 { fill: #ffbf00; }
      .st5 { display: none; }
    </style>
  </defs>
  <g id="Left_Triangle">
    <path class="st3" d="M219.38,142.49l-111.54,189.62c-9.84-13.92-25.63-23.35-43.67-24.59l112.02-190.44c9.59,14.13,25.22,23.83,43.18,25.41h0Z"/>
  </g>
  <g id="Right_Triangle">
    <path class="st3" d="M384.71,307.11c-13.19,1.17-26.04,6.79-36.14,16.89-2.66,2.66-5.01,5.51-7.04,8.51l-111.78-190.02c17.96-1.57,33.59-11.28,43.18-25.41l111.77,190.03h0Z"/>
  </g>
  <g id="Bottom_Triangle">
    <path class="st3" d="M337.08,390.37H113.16c3.47-7.46,5.39-15.77,5.39-24.54s-2.11-17.83-5.87-25.56h224.38c-7.5,15.81-7.5,34.29,0,50.1h0Z"/>
  </g>
  <path id="Right_Circle" class="st0" d="M389.89,415.43c13.29,0,26.03-5.28,35.43-14.67,9.39-9.39,14.67-22.13,14.67-35.43s-5.28-26.03-14.67-35.43c-9.39-9.39-22.13-14.67-35.43-14.67s-26.03,5.28-35.43,14.67c-9.4,9.39-14.67,22.13-14.67,35.43s5.28,26.03,14.67,35.43c9.39,9.39,22.13,14.67,35.43,14.67h0Z"/>
  <path id="Top_Circle" class="st4" d="M224.57,134.37c13.29,0,26.03-5.28,35.43-14.67,9.39-9.39,14.67-22.13,14.67-35.43s-5.28-26.03-14.67-35.43c-9.39-9.39-22.13-14.67-35.43-14.67s-26.03,5.28-35.43,14.67c-9.39,9.39-14.67,22.13-14.67,35.43s5.28,26.03,14.67,35.43c9.39,9.39,22.13,14.67,35.43,14.67h0Z"/>
  <path id="Left_Circle" class="st1" d="M60.11,415.43c13.29,0,26.03-5.28,35.43-14.67,9.39-9.39,14.67-22.13,14.67-35.43s-5.28-26.03-14.67-35.43c-9.39-9.39-22.13-14.67-35.43-14.67s-26.03,5.28-35.43,14.67c-9.39,9.39-14.67,22.13-14.67,35.43s5.28,26.03,14.67,35.43c9.39,9.39,22.13,14.67,35.43,14.67Z"/>
</svg>
